<svg xmlns="http://www.w3.org/2000/svg" viewBox="0 0 64 64"><rect x="10" y="10" width="44" height="44" rx="4" fill="#15130f" stroke="#050403" stroke-width="3"/><path d="M24 22h14v-6l11 11-11 11v-7H28c-6 0-10 4-10 10 0 5 4 9 9 10v-7c-2-1-3-3-3-5 0-3 2-5 6-5h8v7L27 30l11-11v6H24c-10 0-17 7-17 17 0 9 7 16 16 17v-6c-6-1-10-5-10-11 0-7 4-12 11-12z" fill="#8b8375"/><path d="M24 22h14v-5l8 10-8 9v-6H27c-7 0-12 5-12 12" fill="none" stroke="#c3b9a6" stroke-width="3" stroke-linejoin="round" opacity=".45"/></svg>
